<svg width="110" height="22" viewBox="0 0 110 22" fill="none" xmlns="http://www.w3.org/2000/svg">
<rect width="110" height="22" fill="#04FF00" fill-opacity="0.46"/>
<path d="M15.5312 12.5312L17.7188 14.7188M20.7812 11.2188L22.9688 9.03125M19.0312 12.5312L21.2188 14.7188L26.4688 9.03125" stroke="black" stroke-width="1.3125" stroke-linecap="round" stroke-linejoin="round"/>
<path d="M45.6367 10.1992H44.1758C44.1341 9.95964 44.0573 9.7474 43.9453 9.5625C43.8333 9.375 43.694 9.21615 43.5273 9.08594C43.3607 8.95573 43.1706 8.85807 42.957 8.79297C42.7461 8.72526 42.5182 8.69141 42.2734 8.69141C41.8385 8.69141 41.4531 8.80078 41.1172 9.01953C40.7813 9.23568 40.5182 9.55339 40.3281 9.97266C40.138 10.3893 40.043 10.8984 40.043 11.5C40.043 12.112 40.138 12.6276 40.3281 13.0469C40.5208 13.4635 40.7839 13.7786 41.1172 13.9922C41.4531 14.2031 41.8372 14.3086 42.2695 14.3086C42.5091 14.3086 42.7331 14.2773 42.9414 14.2148C43.1523 14.1497 43.3411 14.0547 43.5078 13.9297C43.6771 13.8047 43.819 13.651 43.9336 13.4687C44.0508 13.2865 44.1315 13.0781 44.1758 12.8437L45.6367 12.8516C45.582 13.2318 45.4635 13.5885 45.2812 13.9219C45.1016 14.2552 44.8659 14.5495 44.5742 14.8047C44.2826 15.0573 43.9414 15.2552 43.5508 15.3984C43.1602 15.5391 42.7266 15.6094 42.25 15.6094C41.5469 15.6094 40.9193 15.4466 40.3672 15.1211C39.8151 14.7956 39.3802 14.3255 39.0625 13.7109C38.7448 13.0964 38.5859 12.3594 38.5859 11.5C38.5859 10.638 38.7461 9.90104 39.0664 9.28906C39.3867 8.67448 39.8229 8.20443 40.375 7.87891C40.9271 7.55339 41.5521 7.39062 42.25 7.39062C42.6953 7.39062 43.1094 7.45312 43.4922 7.57812C43.875 7.70312 44.2161 7.88672 44.5156 8.12891C44.8151 8.36849 45.0612 8.66276 45.2539 9.01172C45.4492 9.35807 45.5768 9.75391 45.6367 10.1992ZM49.5186 15.6172C48.9326 15.6172 48.4248 15.4883 47.9951 15.2305C47.5654 14.9727 47.2321 14.612 46.9951 14.1484C46.7607 13.6849 46.6436 13.1432 46.6436 12.5234C46.6436 11.9036 46.7607 11.3607 46.9951 10.8945C47.2321 10.4284 47.5654 10.0664 47.9951 9.80859C48.4248 9.55078 48.9326 9.42188 49.5186 9.42188C50.1045 9.42188 50.6123 9.55078 51.042 9.80859C51.4717 10.0664 51.8037 10.4284 52.0381 10.8945C52.2751 11.3607 52.3936 11.9036 52.3936 12.5234C52.3936 13.1432 52.2751 13.6849 52.0381 14.1484C51.8037 14.612 51.4717 14.9727 51.042 15.2305C50.6123 15.4883 50.1045 15.6172 49.5186 15.6172ZM49.5264 14.4844C49.8441 14.4844 50.1097 14.3971 50.3232 14.2227C50.5368 14.0456 50.6956 13.8086 50.7998 13.5117C50.9066 13.2148 50.96 12.8841 50.96 12.5195C50.96 12.1523 50.9066 11.8203 50.7998 11.5234C50.6956 11.224 50.5368 10.9857 50.3232 10.8086C50.1097 10.6315 49.8441 10.543 49.5264 10.543C49.2008 10.543 48.93 10.6315 48.7139 10.8086C48.5003 10.9857 48.3402 11.224 48.2334 11.5234C48.1292 11.8203 48.0771 12.1523 48.0771 12.5195C48.0771 12.8841 48.1292 13.2148 48.2334 13.5117C48.3402 13.8086 48.5003 14.0456 48.7139 14.2227C48.93 14.3971 49.2008 14.4844 49.5264 14.4844ZM55.0078 11.9844V15.5H53.5938V9.5H54.9453V10.5195H55.0156C55.1536 10.1836 55.3737 9.91667 55.6758 9.71875C55.9805 9.52083 56.3568 9.42188 56.8047 9.42188C57.2188 9.42188 57.5794 9.51042 57.8867 9.6875C58.1966 9.86458 58.4362 10.1211 58.6055 10.457C58.7773 10.793 58.862 11.2005 58.8594 11.6797V15.5H57.4453V11.8984C57.4453 11.4974 57.3411 11.1836 57.1328 10.957C56.9271 10.7305 56.6419 10.6172 56.2773 10.6172C56.0299 10.6172 55.8099 10.6719 55.6172 10.7812C55.4271 10.888 55.2773 11.043 55.168 11.2461C55.0612 11.4492 55.0078 11.6953 55.0078 11.9844ZM62.9141 15.6172C62.3151 15.6172 61.8008 15.4857 61.3711 15.2227C60.944 14.9596 60.6146 14.5964 60.3828 14.1328C60.1536 13.6667 60.0391 13.1302 60.0391 12.5234C60.0391 11.9141 60.1563 11.3763 60.3906 10.9102C60.625 10.4414 60.9557 10.0768 61.3828 9.81641C61.8125 9.55339 62.3203 9.42188 62.9063 9.42188C63.3932 9.42188 63.8242 9.51172 64.1992 9.69141C64.5768 9.86849 64.8776 10.1198 65.1016 10.4453C65.3255 10.7682 65.4531 11.1458 65.4844 11.5781H64.1328C64.0781 11.2891 63.9479 11.0482 63.7422 10.8555C63.5391 10.6602 63.2669 10.5625 62.9258 10.5625C62.6367 10.5625 62.3828 10.6406 62.1641 10.7969C61.9453 10.9505 61.7747 11.1719 61.6523 11.4609C61.5326 11.75 61.4727 12.0964 61.4727 12.5C61.4727 12.9089 61.5326 13.2604 61.6523 13.5547C61.7721 13.8464 61.9401 14.0716 62.1563 14.2305C62.375 14.3867 62.6315 14.4648 62.9258 14.4648C63.1341 14.4648 63.3203 14.4258 63.4844 14.3477C63.651 14.2669 63.7904 14.151 63.9023 14C64.0143 13.849 64.0911 13.6654 64.1328 13.4492H65.4844C65.4505 13.8737 65.3255 14.25 65.1094 14.5781C64.8932 14.9036 64.599 15.1589 64.2266 15.3437C63.8542 15.526 63.4167 15.6172 62.9141 15.6172ZM68.0596 7.5V15.5H66.6455V7.5H68.0596ZM73.3379 12.9766V9.5H74.752V15.5H73.3809V14.4336H73.3184C73.1829 14.7695 72.9603 15.0443 72.6504 15.2578C72.3431 15.4714 71.9642 15.5781 71.5137 15.5781C71.1204 15.5781 70.7728 15.4909 70.4707 15.3164C70.1712 15.1393 69.9368 14.8828 69.7676 14.5469C69.5983 14.2083 69.5137 13.7995 69.5137 13.3203V9.5H70.9277V13.1016C70.9277 13.4818 71.0319 13.7839 71.2402 14.0078C71.4486 14.2318 71.722 14.3437 72.0605 14.3437C72.2689 14.3437 72.4707 14.293 72.666 14.1914C72.8613 14.0898 73.0215 13.9388 73.1465 13.7383C73.2741 13.5352 73.3379 13.2812 73.3379 12.9766ZM78.4326 15.6055C77.9613 15.6055 77.5394 15.4844 77.167 15.2422C76.7946 15 76.5003 14.6484 76.2842 14.1875C76.068 13.7266 75.96 13.1667 75.96 12.5078C75.96 11.8411 76.0693 11.2786 76.2881 10.8203C76.5094 10.3594 76.8076 10.0117 77.1826 9.77734C77.5576 9.54036 77.9756 9.42188 78.4365 9.42188C78.7881 9.42188 79.0771 9.48177 79.3037 9.60156C79.5303 9.71875 79.71 9.86068 79.8428 10.0273C79.9756 10.1914 80.0785 10.3464 80.1514 10.4922H80.21V7.5H81.6279V15.5H80.2373V14.5547H80.1514C80.0785 14.7005 79.973 14.8555 79.835 15.0195C79.6969 15.181 79.5146 15.319 79.2881 15.4336C79.0615 15.5482 78.7764 15.6055 78.4326 15.6055ZM78.8271 14.4453C79.1266 14.4453 79.3818 14.3646 79.5928 14.2031C79.8037 14.0391 79.9639 13.8112 80.0732 13.5195C80.1826 13.2279 80.2373 12.888 80.2373 12.5C80.2373 12.112 80.1826 11.7747 80.0732 11.4883C79.9665 11.2018 79.8076 10.9792 79.5967 10.8203C79.3883 10.6615 79.1318 10.582 78.8271 10.582C78.512 10.582 78.249 10.6641 78.0381 10.8281C77.8271 10.9922 77.6683 11.2187 77.5615 11.5078C77.4548 11.7969 77.4014 12.1276 77.4014 12.5C77.4014 12.875 77.4548 13.2096 77.5615 13.5039C77.6709 13.7956 77.8311 14.026 78.042 14.1953C78.2555 14.362 78.5173 14.4453 78.8271 14.4453ZM85.791 15.6172C85.1895 15.6172 84.6699 15.4922 84.2324 15.2422C83.7975 14.9896 83.4629 14.6328 83.2285 14.1719C82.9941 13.7083 82.877 13.1628 82.877 12.5352C82.877 11.918 82.9941 11.3763 83.2285 10.9102C83.4655 10.4414 83.7962 10.0768 84.2207 9.81641C84.6452 9.55339 85.1439 9.42188 85.7168 9.42188C86.0866 9.42188 86.4355 9.48177 86.7637 9.60156C87.0944 9.71875 87.3861 9.90104 87.6387 10.1484C87.8939 10.3958 88.0944 10.7109 88.2402 11.0937C88.3861 11.474 88.459 11.9271 88.459 12.4531V12.8867H83.541V11.9336H87.1035C87.1009 11.6628 87.0423 11.4219 86.9277 11.2109C86.8132 10.9974 86.653 10.8294 86.4473 10.707C86.2441 10.5846 86.0072 10.5234 85.7363 10.5234C85.4473 10.5234 85.1934 10.5937 84.9746 10.7344C84.7559 10.8724 84.5853 11.0547 84.4629 11.2812C84.3431 11.5052 84.2819 11.7513 84.2793 12.0195V12.8516C84.2793 13.2005 84.3431 13.5 84.4707 13.75C84.5983 13.9974 84.7767 14.1875 85.0059 14.3203C85.235 14.4505 85.5033 14.5156 85.8105 14.5156C86.0163 14.5156 86.2025 14.487 86.3691 14.4297C86.5358 14.3698 86.6803 14.2826 86.8027 14.168C86.9251 14.0534 87.0176 13.9115 87.0801 13.7422L88.4004 13.8906C88.3171 14.2396 88.1582 14.5443 87.9238 14.8047C87.6921 15.0625 87.3952 15.263 87.0332 15.4062C86.6712 15.5469 86.2572 15.6172 85.791 15.6172ZM91.8818 15.6055C91.4105 15.6055 90.9886 15.4844 90.6162 15.2422C90.2438 15 89.9495 14.6484 89.7334 14.1875C89.5173 13.7266 89.4092 13.1667 89.4092 12.5078C89.4092 11.8411 89.5186 11.2786 89.7373 10.8203C89.9587 10.3594 90.2568 10.0117 90.6318 9.77734C91.0068 9.54036 91.4248 9.42188 91.8857 9.42188C92.2373 9.42188 92.5264 9.48177 92.7529 9.60156C92.9795 9.71875 93.1592 9.86068 93.292 10.0273C93.4248 10.1914 93.5277 10.3464 93.6006 10.4922H93.6592V7.5H95.0771V15.5H93.6865V14.5547H93.6006C93.5277 14.7005 93.4222 14.8555 93.2842 15.0195C93.1462 15.181 92.9639 15.319 92.7373 15.4336C92.5107 15.5482 92.2256 15.6055 91.8818 15.6055ZM92.2764 14.4453C92.5758 14.4453 92.8311 14.3646 93.042 14.2031C93.2529 14.0391 93.4131 13.8112 93.5225 13.5195C93.6318 13.2279 93.6865 12.888 93.6865 12.5C93.6865 12.112 93.6318 11.7747 93.5225 11.4883C93.4157 11.2018 93.2568 10.9792 93.0459 10.8203C92.8376 10.6615 92.5811 10.582 92.2764 10.582C91.9613 10.582 91.6982 10.6641 91.4873 10.8281C91.2764 10.9922 91.1175 11.2187 91.0107 11.5078C90.904 11.7969 90.8506 12.1276 90.8506 12.5C90.8506 12.875 90.904 13.2096 91.0107 13.5039C91.1201 13.7956 91.2803 14.026 91.4912 14.1953C91.7048 14.362 91.9665 14.4453 92.2764 14.4453Z" fill="black" fill-opacity="0.8"/>
</svg>
