<svg width="107" height="22" viewBox="0 0 107 22" fill="none" xmlns="http://www.w3.org/2000/svg">
<rect width="107" height="22" fill="#FFDC73" fill-opacity="0.46"/>
<mask id="mask0_176_123" style="mask-type:alpha" maskUnits="userSpaceOnUse" x="14" y="4" width="14" height="14">
<rect x="14" y="4" width="14" height="14" fill="#D9D9D9"/>
</mask>
<g mask="url(#mask0_176_123)">
<path d="M20.3875 13.6542L23.6833 10.3583L22.8521 9.5271L20.3875 11.9917L19.1479 10.7521L18.3167 11.5833L20.3875 13.6542ZM21 16.8333C20.2708 16.8333 19.5878 16.6948 18.951 16.4177C18.3142 16.1406 17.7601 15.7663 17.2885 15.2948C16.817 14.8233 16.4427 14.2691 16.1656 13.6323C15.8885 12.9955 15.75 12.3125 15.75 11.5833C15.75 10.8542 15.8885 10.1712 16.1656 9.53439C16.4427 8.89759 16.817 8.34342 17.2885 7.87189C17.7601 7.40036 18.3142 7.02606 18.951 6.74897C19.5878 6.47189 20.2708 6.33335 21 6.33335C21.7292 6.33335 22.4122 6.47189 23.049 6.74897C23.6858 7.02606 24.2399 7.40036 24.7115 7.87189C25.183 8.34342 25.5573 8.89759 25.8344 9.53439C26.1115 10.1712 26.25 10.8542 26.25 11.5833C26.25 12.3125 26.1115 12.9955 25.8344 13.6323C25.5573 14.2691 25.183 14.8233 24.7115 15.2948C24.2399 15.7663 23.6858 16.1406 23.049 16.4177C22.4122 16.6948 21.7292 16.8333 21 16.8333ZM17.2667 5.37085L18.0833 6.18752L15.6042 8.66668L14.7875 7.85002L17.2667 5.37085ZM24.7333 5.37085L27.2125 7.85002L26.3958 8.66668L23.9167 6.18752L24.7333 5.37085ZM21 15.6667C22.1375 15.6667 23.1024 15.2705 23.8948 14.4781C24.6872 13.6858 25.0833 12.7208 25.0833 11.5833C25.0833 10.4458 24.6872 9.48092 23.8948 8.68856C23.1024 7.8962 22.1375 7.50002 21 7.50002C19.8625 7.50002 18.8976 7.8962 18.1052 8.68856C17.3128 9.48092 16.9167 10.4458 16.9167 11.5833C16.9167 12.7208 17.3128 13.6858 18.1052 14.4781C18.8976 15.2705 19.8625 15.6667 21 15.6667Z" fill="#1C1B1F"/>
</g>
<path d="M43.832 7.5H45.2812V12.7266C45.2812 13.2995 45.1458 13.8034 44.875 14.2383C44.6068 14.6732 44.2292 15.013 43.7422 15.2578C43.2552 15.5 42.6862 15.6211 42.0352 15.6211C41.3815 15.6211 40.8112 15.5 40.3242 15.2578C39.8372 15.013 39.4596 14.6732 39.1914 14.2383C38.9232 13.8034 38.7891 13.2995 38.7891 12.7266V7.5H40.2383V12.6055C40.2383 12.9388 40.3112 13.2357 40.457 13.4961C40.6055 13.7565 40.8138 13.9609 41.082 14.1094C41.3503 14.2552 41.668 14.3281 42.0352 14.3281C42.4023 14.3281 42.7201 14.2552 42.9883 14.1094C43.2591 13.9609 43.4674 13.7565 43.6133 13.4961C43.7591 13.2357 43.832 12.9388 43.832 12.6055V7.5ZM46.7939 17.75V9.5H48.1846V10.4922H48.2666C48.3395 10.3464 48.4424 10.1914 48.5752 10.0273C48.708 9.86068 48.8877 9.71875 49.1143 9.60156C49.3408 9.48177 49.6299 9.42188 49.9814 9.42188C50.445 9.42188 50.863 9.54036 51.2354 9.77734C51.6104 10.0117 51.9072 10.3594 52.126 10.8203C52.3473 11.2786 52.458 11.8411 52.458 12.5078C52.458 13.1667 52.3499 13.7266 52.1338 14.1875C51.9176 14.6484 51.6234 15 51.251 15.2422C50.8786 15.4844 50.4567 15.6055 49.9854 15.6055C49.6416 15.6055 49.3564 15.5482 49.1299 15.4336C48.9033 15.319 48.721 15.181 48.583 15.0195C48.4476 14.8555 48.3421 14.7005 48.2666 14.5547H48.208V17.75H46.7939ZM48.1807 12.5C48.1807 12.888 48.2354 13.2279 48.3447 13.5195C48.4567 13.8112 48.6169 14.0391 48.8252 14.2031C49.0361 14.3646 49.2913 14.4453 49.5908 14.4453C49.9033 14.4453 50.165 14.362 50.376 14.1953C50.5869 14.026 50.7458 13.7956 50.8525 13.5039C50.9619 13.2096 51.0166 12.875 51.0166 12.5C51.0166 12.1276 50.9632 11.7969 50.8564 11.5078C50.7497 11.2187 50.5908 10.9922 50.3799 10.8281C50.1689 10.6641 49.9059 10.582 49.5908 10.582C49.2887 10.582 49.0322 10.6615 48.8213 10.8203C48.6104 10.9792 48.4502 11.2018 48.3408 11.4883C48.234 11.7747 48.1807 12.112 48.1807 12.5ZM56.2861 15.6172C55.6872 15.6172 55.1729 15.4857 54.7432 15.2227C54.3161 14.9596 53.9867 14.5964 53.7549 14.1328C53.5257 13.6667 53.4111 13.1302 53.4111 12.5234C53.4111 11.9141 53.5283 11.3763 53.7627 10.9102C53.9971 10.4414 54.3278 10.0768 54.7549 9.81641C55.1846 9.55339 55.6924 9.42188 56.2783 9.42188C56.7653 9.42188 57.1963 9.51172 57.5713 9.69141C57.9489 9.86849 58.2497 10.1198 58.4736 10.4453C58.6976 10.7682 58.8252 11.1458 58.8564 11.5781H57.5049C57.4502 11.2891 57.32 11.0482 57.1143 10.8555C56.9111 10.6602 56.639 10.5625 56.2979 10.5625C56.0088 10.5625 55.7549 10.6406 55.5361 10.7969C55.3174 10.9505 55.1468 11.1719 55.0244 11.4609C54.9046 11.75 54.8447 12.0964 54.8447 12.5C54.8447 12.9089 54.9046 13.2604 55.0244 13.5547C55.1442 13.8464 55.3122 14.0716 55.5283 14.2305C55.7471 14.3867 56.0036 14.4648 56.2979 14.4648C56.5062 14.4648 56.6924 14.4258 56.8564 14.3477C57.0231 14.2669 57.1624 14.151 57.2744 14C57.3864 13.849 57.4632 13.6654 57.5049 13.4492H58.8564C58.8226 13.8737 58.6976 14.25 58.4814 14.5781C58.2653 14.9036 57.971 15.1589 57.5986 15.3437C57.2262 15.526 56.7887 15.6172 56.2861 15.6172ZM62.6348 15.6172C62.0488 15.6172 61.541 15.4883 61.1113 15.2305C60.6816 14.9727 60.3483 14.612 60.1113 14.1484C59.877 13.6849 59.7598 13.1432 59.7598 12.5234C59.7598 11.9036 59.877 11.3607 60.1113 10.8945C60.3483 10.4284 60.6816 10.0664 61.1113 9.80859C61.541 9.55078 62.0488 9.42188 62.6348 9.42188C63.2207 9.42188 63.7285 9.55078 64.1582 9.80859C64.5879 10.0664 64.9199 10.4284 65.1543 10.8945C65.3913 11.3607 65.5098 11.9036 65.5098 12.5234C65.5098 13.1432 65.3913 13.6849 65.1543 14.1484C64.9199 14.612 64.5879 14.9727 64.1582 15.2305C63.7285 15.4883 63.2207 15.6172 62.6348 15.6172ZM62.6426 14.4844C62.9603 14.4844 63.2259 14.3971 63.4395 14.2227C63.653 14.0456 63.8118 13.8086 63.916 13.5117C64.0228 13.2148 64.0762 12.8841 64.0762 12.5195C64.0762 12.1523 64.0228 11.8203 63.916 11.5234C63.8118 11.224 63.653 10.9857 63.4395 10.8086C63.2259 10.6315 62.9603 10.543 62.6426 10.543C62.3171 10.543 62.0462 10.6315 61.8301 10.8086C61.6165 10.9857 61.4564 11.224 61.3496 11.5234C61.2454 11.8203 61.1934 12.1523 61.1934 12.5195C61.1934 12.8841 61.2454 13.2148 61.3496 13.5117C61.4564 13.8086 61.6165 14.0456 61.8301 14.2227C62.0462 14.3971 62.3171 14.4844 62.6426 14.4844ZM66.71 15.5V9.5H68.0615V10.5195H68.1318C68.2568 10.1758 68.4639 9.90755 68.7529 9.71484C69.042 9.51953 69.387 9.42188 69.7881 9.42188C70.1943 9.42188 70.5368 9.52083 70.8154 9.71875C71.0967 9.91406 71.2946 10.181 71.4092 10.5195H71.4717C71.6045 10.1862 71.8285 9.92057 72.1436 9.72266C72.4613 9.52214 72.8376 9.42188 73.2725 9.42188C73.8245 9.42188 74.2751 9.59635 74.624 9.94531C74.973 10.2943 75.1475 10.8034 75.1475 11.4727V15.5H73.7295V11.6914C73.7295 11.319 73.6305 11.0469 73.4326 10.875C73.2347 10.7005 72.9925 10.6133 72.7061 10.6133C72.3649 10.6133 72.098 10.7201 71.9053 10.9336C71.7152 11.1445 71.6201 11.4193 71.6201 11.7578V15.5H70.2334V11.6328C70.2334 11.3229 70.1396 11.0755 69.9521 10.8906C69.7673 10.7057 69.5251 10.6133 69.2256 10.6133C69.0225 10.6133 68.8376 10.6654 68.6709 10.7695C68.5042 10.8711 68.3714 11.0156 68.2725 11.2031C68.1735 11.388 68.124 11.6042 68.124 11.8516V15.5H66.71ZM76.582 15.5V9.5H77.9961V15.5H76.582ZM77.293 8.64844C77.069 8.64844 76.8763 8.57422 76.7148 8.42578C76.5534 8.27474 76.4727 8.09375 76.4727 7.88281C76.4727 7.66927 76.5534 7.48828 76.7148 7.33984C76.8763 7.1888 77.069 7.11328 77.293 7.11328C77.5195 7.11328 77.7122 7.1888 77.8711 7.33984C78.0326 7.48828 78.1133 7.66927 78.1133 7.88281C78.1133 8.09375 78.0326 8.27474 77.8711 8.42578C77.7122 8.57422 77.5195 8.64844 77.293 8.64844ZM80.8643 11.9844V15.5H79.4502V9.5H80.8018V10.5195H80.8721C81.0101 10.1836 81.2301 9.91667 81.5322 9.71875C81.8369 9.52083 82.2132 9.42188 82.6611 9.42188C83.0752 9.42188 83.4359 9.51042 83.7432 9.6875C84.0531 9.86458 84.2926 10.1211 84.4619 10.457C84.6338 10.793 84.7184 11.2005 84.7158 11.6797V15.5H83.3018V11.8984C83.3018 11.4974 83.1976 11.1836 82.9893 10.957C82.7835 10.7305 82.4984 10.6172 82.1338 10.6172C81.8864 10.6172 81.6663 10.6719 81.4736 10.7812C81.2835 10.888 81.1338 11.043 81.0244 11.2461C80.9176 11.4492 80.8643 11.6953 80.8643 11.9844ZM88.7627 17.875C88.2549 17.875 87.8187 17.806 87.4541 17.668C87.0895 17.5326 86.7965 17.3503 86.5752 17.1211C86.3538 16.8919 86.2002 16.638 86.1143 16.3594L87.3877 16.0508C87.445 16.168 87.5283 16.2839 87.6377 16.3984C87.7471 16.5156 87.8942 16.612 88.0791 16.6875C88.2666 16.7656 88.5023 16.8047 88.7861 16.8047C89.1872 16.8047 89.5192 16.707 89.7822 16.5117C90.0452 16.319 90.1768 16.0013 90.1768 15.5586V14.4219H90.1064C90.0335 14.5677 89.9268 14.7174 89.7861 14.8711C89.6481 15.0247 89.4645 15.1536 89.2354 15.2578C89.0088 15.362 88.7236 15.4141 88.3799 15.4141C87.9189 15.4141 87.501 15.306 87.126 15.0898C86.7536 14.8711 86.4567 14.5456 86.2354 14.1133C86.0166 13.6784 85.9072 13.1341 85.9072 12.4805C85.9072 11.8216 86.0166 11.2656 86.2354 10.8125C86.4567 10.3568 86.7549 10.0117 87.1299 9.77734C87.5049 9.54036 87.9229 9.42188 88.3838 9.42188C88.7354 9.42188 89.0244 9.48177 89.251 9.60156C89.4801 9.71875 89.6624 9.86068 89.7979 10.0273C89.9333 10.1914 90.0361 10.3464 90.1064 10.4922H90.1846V9.5H91.5791V15.5977C91.5791 16.1107 91.4567 16.5352 91.2119 16.8711C90.9671 17.207 90.6325 17.4583 90.208 17.625C89.7835 17.7917 89.3018 17.875 88.7627 17.875ZM88.7744 14.3047C89.0739 14.3047 89.3291 14.2318 89.54 14.0859C89.751 13.9401 89.9111 13.7305 90.0205 13.457C90.1299 13.1836 90.1846 12.8555 90.1846 12.4727C90.1846 12.0951 90.1299 11.7643 90.0205 11.4805C89.9137 11.1966 89.7549 10.9766 89.5439 10.8203C89.3356 10.6615 89.0791 10.582 88.7744 10.582C88.4593 10.582 88.1963 10.6641 87.9854 10.8281C87.7744 10.9922 87.6156 11.2174 87.5088 11.5039C87.402 11.7878 87.3486 12.1107 87.3486 12.4727C87.3486 12.8398 87.402 13.1615 87.5088 13.4375C87.6182 13.7109 87.7783 13.9245 87.9893 14.0781C88.2028 14.2292 88.4645 14.3047 88.7744 14.3047Z" fill="black" fill-opacity="0.8"/>
</svg>
